<svg width="452" height="85" viewBox="0 0 452 85" fill="none" xmlns="http://www.w3.org/2000/svg">
<mask id="path-1-inside-1_2001_850" fill="white">
<path d="M270.6 0H360.8V84.6873H270.6V0Z"/>
</mask>
<path d="M360.8 0H361.251V-0.451H360.8V0ZM360.8 84.6873V85.1383H361.251V84.6873H360.8ZM270.6 0V0.451H360.8V0V-0.451H270.6V0ZM360.8 0H360.349V84.6873H360.8H361.251V0H360.8ZM360.8 84.6873V84.2363H270.6V84.6873V85.1383H360.8V84.6873Z" fill="white" fill-opacity="0.5" mask="url(#path-1-inside-1_2001_850)"/>
<path d="M311.319 50.717C319.297 50.717 323.659 44.5114 323.659 39.1304C323.659 38.9541 323.655 38.7786 323.647 38.6041C324.494 38.0292 325.23 37.3118 325.811 36.4953C325.034 36.8197 324.197 37.0379 323.32 37.1366C324.215 36.6322 324.903 35.8347 325.227 34.8841C324.389 35.3505 323.461 35.6894 322.473 35.8725C321.681 35.0809 320.554 34.5859 319.307 34.5859C316.912 34.5859 314.969 36.4096 314.969 38.6576C314.969 38.9773 315.007 39.2881 315.082 39.5862C311.477 39.4159 308.28 37.7955 306.141 35.3315C305.769 35.9332 305.554 36.6323 305.554 37.3784C305.554 38.791 306.32 40.0385 307.484 40.768C306.772 40.7475 306.104 40.5641 305.52 40.2588C305.519 40.2759 305.519 40.2925 305.519 40.3107C305.519 42.283 307.014 43.9296 308.999 44.3028C308.634 44.3959 308.251 44.446 307.855 44.446C307.576 44.446 307.304 44.4203 307.04 44.3726C307.592 45.9906 309.193 47.168 311.092 47.201C309.607 48.2935 307.737 48.9442 305.705 48.9442C305.355 48.9442 305.009 48.9254 304.67 48.8878C306.59 50.043 308.869 50.7171 311.319 50.7171" fill="white"/>
<mask id="path-4-inside-2_2001_850" fill="white">
<path d="M90.1992 0H180.399V84.6873H90.1992V0Z"/>
</mask>
<path d="M180.399 0H180.85V-0.451H180.399V0ZM180.399 84.6873V85.1383H180.85V84.6873H180.399ZM90.1992 0V0.451H180.399V0V-0.451H90.1992V0ZM180.399 0H179.948V84.6873H180.399H180.85V0H180.399ZM180.399 84.6873V84.2363H90.1992V84.6873V85.1383H180.399V84.6873Z" fill="white" fill-opacity="0.5" mask="url(#path-4-inside-2_2001_850)"/>
<path d="M126.831 33.2578C125.281 33.2578 124.268 34.2135 124.268 35.4697C124.268 36.6981 125.251 37.6811 126.772 37.6811H126.801C128.382 37.6811 129.365 36.6981 129.365 35.4697C129.336 34.2135 128.382 33.2578 126.831 33.2578Z" fill="white"/>
<path d="M124.535 39.4277H129.067V52.2288H124.535V39.4277Z" fill="white"/>
<path d="M140.19 39.1289C137.746 39.1289 136.106 41.2858 136.106 41.2858V39.4293H131.574V52.2304H136.106V45.0818C136.106 44.6991 136.136 44.317 136.255 44.0433C136.583 43.2791 137.328 42.4874 138.58 42.4874C140.22 42.4874 140.876 43.6613 140.876 45.3822V52.2304H145.408V44.8905C145.408 40.9586 143.172 39.1289 140.19 39.1289Z" fill="white"/>
<path d="M10 0.225586H89.9746V84.4619H10C4.60175 84.4619 0.225677 80.0857 0.225586 74.6875V10C0.22559 4.6017 4.6017 0.225586 10 0.225586Z" stroke="white" stroke-opacity="0.5" stroke-width="0.451"/>
<g clip-path="url(#clip0_2001_850)">
<path d="M48.4048 35.697H50.4634V32.3307C50.1083 32.2849 48.8868 32.1816 47.4643 32.1816C44.4961 32.1816 42.4629 33.9345 42.4629 37.1561V40.1211H39.1875V43.8844H42.4629V53.3535H46.4787V43.8853H49.6216L50.1205 40.122H46.4777V37.5293C46.4787 36.4416 46.7906 35.697 48.4048 35.697Z" fill="white"/>
</g>
<g clip-path="url(#clip1_2001_850)">
<path d="M416.977 39.168H414.511V41.4725H412.057V43.7877H414.511V46.0922H416.977V43.7877H419.432V41.4725H416.977V39.168Z" fill="white"/>
<path d="M400.827 50.2832C405.707 50.2832 408.949 47.0672 408.949 42.5279C408.949 42.0082 408.891 41.607 408.811 41.2068H400.828V43.9359H405.628C405.432 45.095 404.175 47.3583 400.828 47.3583C397.945 47.3583 395.591 45.1162 395.591 42.3437C395.591 39.5713 397.944 37.3281 400.828 37.3281C402.478 37.3281 403.574 37.9887 404.197 38.5519L406.493 36.4834C405.015 35.1845 403.112 34.4043 400.827 34.4043C396.155 34.4043 392.371 37.9569 392.371 42.3437C392.371 46.7305 396.155 50.2832 400.827 50.2832Z" fill="white"/>
</g>
<mask id="path-13-inside-3_2001_850" fill="white">
<path d="M180.4 0H270.6V84.6873H180.4V0Z"/>
</mask>
<path d="M270.6 0H271.051V-0.451H270.6V0ZM270.6 84.6873V85.1383H271.051V84.6873H270.6ZM180.4 0V0.451H270.6V0V-0.451H180.4V0ZM270.6 0H270.149V84.6873H270.6H271.051V0H270.6ZM270.6 84.6873V84.2363H180.4V84.6873V85.1383H270.6V84.6873Z" fill="white" fill-opacity="0.5" mask="url(#path-13-inside-3_2001_850)"/>
<mask id="path-15-inside-4_2001_850" fill="white">
<path d="M361 0H441.2C446.723 0 451.2 4.47715 451.2 10V74.6873C451.2 80.2102 446.723 84.6873 441.2 84.6873H361V0Z"/>
</mask>
<path d="M361 -0.451H441.2C446.972 -0.451 451.651 4.22807 451.651 10H450.749C450.749 4.72623 446.474 0.451 441.2 0.451H361V-0.451ZM451.651 74.6873C451.651 80.4593 446.972 85.1383 441.2 85.1383H361V84.2363H441.2C446.474 84.2363 450.749 79.9611 450.749 74.6873H451.651ZM361 84.6873V0V84.6873ZM441.2 -0.451C446.972 -0.451 451.651 4.22807 451.651 10V74.6873C451.651 80.4593 446.972 85.1383 441.2 85.1383V84.2363C446.474 84.2363 450.749 79.9611 450.749 74.6873V10C450.749 4.72623 446.474 0.451 441.2 0.451V-0.451Z" fill="white" fill-opacity="0.5" mask="url(#path-15-inside-4_2001_850)"/>
<g clip-path="url(#clip2_2001_850)">
<path d="M236.301 38.4062C236.248 37.2813 236.054 36.5079 235.777 35.8377C235.49 35.1264 235.05 34.4895 234.473 33.9601C233.909 33.4224 233.226 33.0046 232.477 32.74C231.759 32.4794 230.94 32.2975 229.742 32.2479C228.535 32.1941 228.151 32.1816 225.09 32.1816C222.028 32.1816 221.645 32.1941 220.442 32.2437C219.244 32.2933 218.42 32.4754 217.707 32.7358C216.949 33.0046 216.271 33.4182 215.707 33.9601C215.134 34.4895 214.689 35.1306 214.407 35.8337C214.13 36.5079 213.936 37.2771 213.883 38.402C213.826 39.5354 213.812 39.8952 213.812 42.7696C213.812 45.6441 213.826 46.0039 213.879 47.133C213.931 48.258 214.125 49.0314 214.403 49.7015C214.689 50.4129 215.134 51.0497 215.707 51.5792C216.271 52.1168 216.953 52.5346 217.702 52.7993C218.42 53.0599 219.24 53.2418 220.438 53.2914C221.64 53.3411 222.024 53.3534 225.085 53.3534C228.147 53.3534 228.53 53.3411 229.733 53.2914C230.931 53.2418 231.755 53.0599 232.468 52.7993C233.984 52.2491 235.182 51.1242 235.768 49.7015C236.045 49.0273 236.239 48.258 236.292 47.133C236.345 46.0039 236.358 45.6441 236.358 42.7696C236.358 39.8952 236.354 39.5354 236.301 38.4062ZM234.27 47.0503C234.222 48.0843 234.037 48.6426 233.882 49.0149C233.504 49.9372 232.724 50.6693 231.741 51.025C231.345 51.1698 230.746 51.3434 229.649 51.3888C228.46 51.4386 228.103 51.4509 225.094 51.4509C222.085 51.4509 221.724 51.4386 220.539 51.3888C219.438 51.3434 218.843 51.1698 218.447 51.025C217.958 50.8554 217.513 50.5865 217.152 50.235C216.777 49.8917 216.491 49.4781 216.31 49.0191C216.156 48.6468 215.971 48.0843 215.923 47.0545C215.87 45.9378 215.857 45.6027 215.857 42.7779C215.857 39.953 215.87 39.6139 215.923 38.5014C215.971 37.4674 216.156 36.909 216.31 36.5368C216.491 36.0777 216.777 35.66 217.156 35.3207C217.522 34.9692 217.962 34.7004 218.451 34.5309C218.848 34.3861 219.447 34.2124 220.544 34.1669C221.733 34.1173 222.09 34.1048 225.098 34.1048C228.112 34.1048 228.468 34.1173 229.654 34.1669C230.755 34.2124 231.35 34.3861 231.746 34.5309C232.235 34.7004 232.68 34.9692 233.041 35.3207C233.415 35.6641 233.702 36.0777 233.882 36.5368C234.037 36.909 234.222 37.4714 234.27 38.5014C234.323 39.6181 234.336 39.953 234.336 42.7779C234.336 45.6027 234.323 45.9336 234.27 47.0503Z" fill="white"/>
<path d="M225.09 37.332C221.892 37.332 219.297 39.768 219.297 42.7708C219.297 45.7735 221.892 48.2095 225.09 48.2095C228.288 48.2095 230.882 45.7735 230.882 42.7708C230.882 39.768 228.288 37.332 225.09 37.332ZM225.09 46.2988C223.015 46.2988 221.332 44.7189 221.332 42.7708C221.332 40.8227 223.015 39.2428 225.09 39.2428C227.165 39.2428 228.847 40.8227 228.847 42.7708C228.847 44.7189 227.165 46.2988 225.09 46.2988Z" fill="white"/>
<path d="M232.465 37.1154C232.465 37.8166 231.859 38.3851 231.112 38.3851C230.365 38.3851 229.76 37.8166 229.76 37.1154C229.76 36.4141 230.365 35.8457 231.112 35.8457C231.859 35.8457 232.465 36.4141 232.465 37.1154Z" fill="white"/>
</g>
<defs>
<clipPath id="clip0_2001_850">
<rect width="22.55" height="21.1718" fill="white" transform="translate(33.375 32.1816)"/>
</clipPath>
<clipPath id="clip1_2001_850">
<rect width="27.06" height="25.4062" fill="white" transform="translate(392.371 29.6406)"/>
</clipPath>
<clipPath id="clip2_2001_850">
<rect width="22.55" height="21.1718" fill="white" transform="translate(213.773 32.1816)"/>
</clipPath>
</defs>
</svg>
