<svg width="245" height="74" viewBox="0 0 245 74" fill="none" xmlns="http://www.w3.org/2000/svg">
<path d="M38.5389 48.7621V38.9978H41.9971L42.5159 35.1913H38.5389V32.7614C38.5389 31.6597 38.8605 30.9089 40.53 30.9089L42.6559 30.908V27.5034C42.2882 27.4581 41.0262 27.3544 39.5574 27.3544C36.4903 27.3544 34.3906 29.128 34.3906 32.3844V35.1913H30.9219V38.9978H34.3906V48.7621H38.5389Z" fill="black"/>
<circle cx="36.8689" cy="36.8689" r="36.2743" stroke="black" stroke-width="1.18932"/>
<path d="M127.41 28.5437H117.592C114.397 28.5437 111.797 31.1432 111.797 34.3386V44.1567C111.797 47.3519 114.397 49.9514 117.592 49.9514H127.41C130.605 49.9514 133.205 47.3519 133.205 44.1567V34.3386C133.205 31.1432 130.605 28.5437 127.41 28.5437ZM122.501 45.1011C119.273 45.1011 116.647 42.4753 116.647 39.2476C116.647 36.0199 119.273 33.3941 122.501 33.3941C125.729 33.3941 128.354 36.0199 128.354 39.2476C128.354 42.4753 125.729 45.1011 122.501 45.1011ZM128.494 34.7745C127.541 34.7745 126.765 33.9987 126.765 33.0449C126.765 32.091 127.541 31.3151 128.494 31.3151C129.448 31.3151 130.224 32.091 130.224 33.0449C130.224 33.9987 129.448 34.7745 128.494 34.7745Z" fill="black"/>
<path d="M122.499 34.6489C119.964 34.6489 117.901 36.7117 117.901 39.2474C117.901 41.7829 119.964 43.8459 122.499 43.8459C125.035 43.8459 127.098 41.7829 127.098 39.2474C127.098 36.7117 125.035 34.6489 122.499 34.6489Z" fill="black"/>
<path d="M128.494 32.5704C128.233 32.5704 128.02 32.7834 128.02 33.0451C128.02 33.3067 128.233 33.5197 128.494 33.5197C128.756 33.5197 128.969 33.3069 128.969 33.0451C128.969 32.7833 128.756 32.5704 128.494 32.5704Z" fill="black"/>
<circle cx="122.5" cy="36.8689" r="36.2743" stroke="black" stroke-width="1.18932"/>
<path d="M219.559 32.1523C219.299 31.2063 218.536 30.4606 217.568 30.2058C215.799 29.733 208.726 29.733 208.726 29.733C208.726 29.733 201.653 29.733 199.885 30.1879C198.935 30.4424 198.153 31.2064 197.893 32.1523C197.428 33.8802 197.428 37.4636 197.428 37.4636C197.428 37.4636 197.428 41.0651 197.893 42.7749C198.154 43.7208 198.917 44.4665 199.885 44.7213C201.672 45.1942 208.726 45.1942 208.726 45.1942C208.726 45.1942 215.799 45.1942 217.568 44.7393C218.536 44.4847 219.299 43.739 219.56 42.7931C220.025 41.0651 220.025 37.4818 220.025 37.4818C220.025 37.4818 220.043 33.8802 219.559 32.1523ZM206.474 40.7741V34.1531L212.356 37.4636L206.474 40.7741Z" fill="black"/>
<circle cx="208.131" cy="36.8689" r="36.2743" stroke="black" stroke-width="1.18932"/>
</svg>
